<?xml version="1.0" encoding="UTF-8" standalone="no"?>
<svg
   xmlns:dc="http://purl.org/dc/elements/1.1/"
   xmlns:cc="http://creativecommons.org/ns#"
   xmlns:rdf="http://www.w3.org/1999/02/22-rdf-syntax-ns#"
   xmlns:svg="http://www.w3.org/2000/svg"
   xmlns="http://www.w3.org/2000/svg"
   xmlns:sodipodi="http://sodipodi.sourceforge.net/DTD/sodipodi-0.dtd"
   xmlns:inkscape="http://www.inkscape.org/namespaces/inkscape"
   width="265.009px"
   height="332.190px"
   viewBox="0 0 70.463707 87.892065"
   version="1.1"
   id="svg8"
   inkscape:version="1.0.2-2 (e86c870879, 2021-01-15)"
   sodipodi:docname="Ace_Of_Diamonds_plus_plus.svg">
  <defs
     id="defs2" />
  <sodipodi:namedview
     id="base"
     pagecolor="#ffffff"
     bordercolor="#666666"
     borderopacity="1.0"
     inkscape:pageopacity="0.0"
     inkscape:pageshadow="2"
     inkscape:zoom="1.4"
     inkscape:cx="-18.110084"
     inkscape:cy="-31.693308"
     inkscape:document-units="mm"
     inkscape:current-layer="g66"
     inkscape:document-rotation="0"
     showgrid="false"
     inkscape:window-width="1920"
     inkscape:window-height="1017"
     inkscape:window-x="-8"
     inkscape:window-y="-8"
     inkscape:window-maximized="1" />
  <metadata
     id="metadata5">
    <rdf:RDF>
      <cc:Work
         rdf:about="">
        <dc:format>image/svg+xml</dc:format>
        <dc:type
           rdf:resource="http://purl.org/dc/dcmitype/StillImage" />
        <dc:title></dc:title>
      </cc:Work>
    </rdf:RDF>
  </metadata>
  <g
     inkscape:label="Ebene 1"
     inkscape:groupmode="layer"
     id="layer1"
     transform="translate(-75.413811,-98.928963)">
    <g
       id="g66"
       transform="matrix(0.2746627,0,0,0.2746627,55.373513,69.736603)">
      <path
         style="fill:#ffffff;stroke:none"
         d="m 1095.4128,465.13761 v 449.99998 h 450 V 465.13761 Z"
         id="path10" />
      <path
         style="fill:#ed1b22;stroke:none"
         d="m 86.963303,106.7011 -2,0.6111 -1,0.3611 -2,0.8889 -2,1.1944 -1,0.7778 -1.917,1.7778 -1.611,1.9722 -0.611,1 -1,2 -0.389,1 -0.389,2 -0.055,1 -0.028,2 v 2 12 39 171 48 12 2 1 l 0.083,2 0.389,2 0.389,1 0.417,1 0.583,1 0.611,1 1.611,1.972 0.945,0.945 1.972,1.611 1,0.611 2,1.028 2,0.805 2,0.611 1,0.195 1,0.139 2,0.083 h 2 2 3 23.999997 104.00001 32 10 2 1 l 2,-0.083 2,-0.334 2,-0.611 1,-0.361 2,-0.889 2,-1.194 1,-0.778 1.917,-1.778 1.611,-1.972 0.611,-1 1,-2 0.389,-1 0.389,-2 0.055,-1 0.028,-2 v -2 -12 -39 -171 -48 -12 -2 -1 l -0.083,-2 -0.389,-2 -0.389,-1 -0.417,-1 -0.583,-1 -0.611,-1 -1.611,-1.9722 -0.945,-0.9445 -1.972,-1.6111 -1,-0.6111 -2,-1.0278 -2,-0.8055 -2,-0.6111 -1,-0.1945 -1,-0.1389 -2,-0.0833 h -2 -2 -3 -24 -9 -2 -93 -32.00001 -9.999997 -2 -1 l -2,0.0833 z"
         id="path12" />
      <path
         style="fill:#ffffff;stroke:none"
         d="m 87.963303,109.7011 -2,0.6111 -2,0.8055 -1.972,1.0278 -0.945,0.6111 -0.861,0.7778 -1.5,1.7778 -0.639,0.9722 -1,2 -0.666,2 -0.195,1 -0.139,1 -0.083,2 v 1 1 2 12 38 171 46 10 2 1 l 0.083,2 0.334,2 0.666,2 1,2 1.334,1.917 0.805,0.833 0.861,0.778 1.917,1.194 2,0.889 1,0.361 2,0.611 1,0.195 1,0.139 2,0.083 h 1 2 29.999997 101.00001 31 10 2 1 l 2,-0.083 2,-0.334 2,-0.611 2,-0.805 1.972,-1.028 0.945,-0.611 0.861,-0.778 1.5,-1.778 0.639,-0.972 1,-2 0.666,-2 0.195,-1 0.139,-1 0.083,-2 v -1 -1 -2 -12 -38 -170 -47 -11 -2 -1 l -0.083,-2 -0.417,-2 -0.917,-2 -1.277,-1.9722 -0.723,-0.9445 -1.666,-1.6111 -0.945,-0.6111 -1.972,-1.0278 -1,-0.4444 -2,-0.6944 -1,-0.2778 -1,-0.1945 -1,-0.1389 -2,-0.0833 h -1 -1 -2 -29 -101 -32.00001 -8.999997 -2 -1 l -2,0.0833 z"
         id="path14" />
      <path
         style="fill:#121212;stroke:none"
         d="m 98.963303,126.2844 -0.25,1.5 -0.167,0.5555 -0.277,1 -0.639,1.9445 -1,3 -1.667,5 -0.667,2 -0.361,1 -0.361,1 -0.805,1.944 -0.306,0.556 -0.5,1.5 1.944,-0.333 0.806,-0.389 1.139,-1.389 0.694,-1.833 0.334,-1.556 0.083,-1.5 h 7.999997 l 0.25,1.5 0.444,1.556 0.723,1.833 1.027,1.389 0.75,0.389 1.806,0.333 -0.444,-1.5 -0.223,-0.556 -0.333,-1 -0.333,-0.944 -0.334,-1 -0.666,-2 -2.334,-7 -0.666,-2 -0.334,-1 -0.333,-0.9445 -0.333,-1 -0.223,-0.5555 -0.444,-1.5 z"
         id="path16" />
      <path
         style="fill:#ed1b22;stroke:none"
         d="m 99.963303,129.2844 v 2 h 0.999997 l 1,-2 z"
         id="path18" />
      <path
         style="fill:#ffffff;stroke:none"
         d="m 100.9633,130.2844 -0.806,1.5 -0.165997,0.5555 -0.389,1 -0.306,0.9445 -0.666,1.9445 -0.223,0.5555 -0.444,1.5 h 5.999997 l -0.25,-1.5 -0.167,-0.5555 -0.277,-1 -0.639,-1.9167 -0.306,-0.9167 -0.389,-0.8056 -0.166,-0.5277 z"
         id="path20" />
      <path
         style="fill:#ed1b22;stroke:none"
         d="m 97.963303,136.2844 1,1 -1,-1 m 7.999997,0 1,1 -1,-1 m -10.999997,1 1,1 -1,-1 m 11.999997,2 1,1 -1,-1 m -12.999997,1 1,1 -1,-1 m 3,0 1,1 -1,-1 m 10.999997,2 1,1 -1,-1 m -14.999997,1 1,1 -1,-1 m 15.999997,2 1,1 -1,-1 m -7,7 -2.027997,2.056 -0.944,1 -1.639,1.944 -0.778,1 -1.694,2 -1.834,2 -1.694,2 -0.75,1 -1.389,2 -0.528,1 -0.278,2 0.889,2 1.611,2 1.667,2 0.778,1 1.694,2 1.834,2 1.694,1.972 0.778,0.917 1.693997,1.361 0.945,0.306 h 0.972 l 1.917,-0.889 0.861,-0.778 0.833,-0.917 0.778,-0.972 1.694,-2 0.917,-1 1.778,-2 0.833,-1 1.583,-2 1.5,-2 0.862,-2 0.027,-1 -0.694,-2 -0.611,-1 -1.5,-2 -1.778,-2 -1.778,-2 -0.833,-1 -0.778,-1 -1.694,-2 -1.861,-1.889 -1,-0.805 -0.556,-0.528 z"
         id="path22" />
      <path
         style="fill:#ffffff;stroke:none"
         d="m 101.9633,157.2844 -2.055997,2.056 -0.972,1 -0.889,0.944 -1.694,2 -0.778,1 -1.639,1.944 -1.972,2.056 0.278,1.5 0.666,1.556 1.306,1.944 0.833,1 1.834,2 1.694,2 1.555997,1.944 0.416,0.556 1.417,1.5 1.5,-0.778 1.472,-1.333 1.639,-1.889 0.778,-1 1.694,-2 0.917,-1 1.667,-2 0.583,-1 0.306,-1 v -1 l -0.806,-2 -1.389,-2 -0.75,-1 -1.694,-2 -1.806,-1.944 -0.805,-1 -0.528,-0.556 -0.778,-1.5 z"
         id="path24" />
      <path
         style="fill:#ed1b22;stroke:none"
         d="m 179.96331,217.2844 -1.417,1.5 -0.416,0.556 -0.834,1 -1.555,1.944 -0.861,1 -1.834,2 -0.861,1 -0.833,1 -1.611,2 -0.861,1 -1.834,2 -1.694,2 -1.611,2 -0.861,1 -1.834,2 -0.861,1 -1.611,2 -0.833,1 -0.861,1 -1.834,2 -0.861,1 -1.611,2 -0.833,1 -0.861,1 -1.834,2 -0.861,1 -1.611,2 -1.694,2 -0.945,1 -1.916,1.944 -2.056,2.056 v 2 l 2.028,2.056 0.944,1 1.639,1.944 1.611,2 0.861,1 1.834,2 0.861,1 0.833,1 1.611,2 0.861,1 1.834,2 0.861,1 1.611,2 1.694,2 1.834,2 1.694,2 0.778,1 1.667,2 0.888,1 1.667,2 1.611,2 1.778,2 0.917,1 1.694,2 0.778,1 1.694,2 0.889,0.944 0.972,1 2.056,2.056 h 2 l 2.056,-2.056 0.972,-1 0.889,-0.944 1.694,-2 0.778,-1 1.694,-2 0.917,-1 1.778,-2 1.611,-2 1.667,-2 0.888,-1 1.667,-2 0.778,-1 1.694,-2 1.834,-2 1.694,-2 1.611,-2 0.861,-1 1.834,-2 0.861,-1 1.611,-2 0.833,-1 0.861,-1 1.834,-2 0.861,-1 1.611,-2 1.639,-1.944 0.944,-1 2.028,-2.056 -0.528,-1.5 -0.972,-1.556 -1.583,-1.944 -1.834,-2 -0.861,-1 -0.833,-1 -1.611,-2 -0.861,-1 -1.834,-2 -1.694,-2 -0.778,-1 -1.694,-2 -1.834,-2 -0.861,-1 -1.611,-2 -1.694,-2 -1.834,-2 -0.861,-1 -1.611,-2 -1.694,-2 -1.834,-2 -0.861,-1 -1.611,-2 -0.833,-1 -0.861,-1 -1.834,-2 -0.861,-1 -1.555,-1.944 -0.834,-1 -0.416,-0.556 -1.417,-1.5 z"
         id="path26" />
      <path
         style="fill:#ffffff;stroke:none"
         d="m 179.96331,222.2844 -1.972,2.056 -1.639,1.944 -0.778,1 -1.694,2 -1.834,2 -0.861,1 -1.611,2 -1.694,2 -1.834,2 -0.861,1 -1.611,2 -0.833,1 -0.861,1 -1.834,2 -1.694,2 -0.778,1 -1.694,2 -1.834,2 -1.694,2 -1.611,2 -0.861,1 -1.834,2 -0.861,1 -1.555,1.944 -0.417,0.556 -1.25,1.5 0.778,1.5 0.528,0.556 0.805,1 1.806,1.944 1.694,2 1.611,2 0.861,1 1.834,2 1.694,2 1.611,2 0.861,1 1.834,2 1.694,2 1.611,2 0.861,1 1.834,2 0.861,1 1.611,2 1.694,2 1.834,2 0.861,1 1.611,2 1.694,2 1.806,1.944 0.805,1 0.528,0.556 0.778,1.5 h 2 l 0.778,-1.5 0.528,-0.556 0.805,-1 1.806,-1.944 1.694,-2 0.778,-1 1.694,-2 1.834,-2 0.861,-1 1.611,-2 1.694,-2 1.834,-2 1.694,-2 1.611,-2 0.861,-1 1.834,-2 1.694,-2 1.611,-2 0.861,-1 1.834,-2 1.694,-2 0.778,-1 1.694,-2 0.889,-0.944 0.972,-1 2.056,-2.056 -0.694,-1.5 -0.389,-0.556 -0.639,-1 -1.5,-1.944 -1.778,-2 -0.917,-1 -1.694,-2 -1.611,-2 -0.861,-1 -1.834,-2 -0.861,-1 -0.833,-1 -1.611,-2 -0.861,-1 -1.834,-2 -0.861,-1 -1.611,-2 -0.833,-1 -0.861,-1 -1.834,-2 -0.861,-1 -1.611,-2 -0.833,-1 -0.861,-1 -1.834,-2 -0.861,-1 -1.611,-2 -1.639,-1.944 -1.972,-2.056 z"
         id="path28" />
      <path
         style="fill:#ed1b22;stroke:none"
         d="m 255.96331,346.2844 -1.472,2.056 -0.806,1 -0.805,0.944 -1.834,2 -0.861,1 -1.611,2 -1.694,2 -1.806,2 -0.778,1 -0.583,1 -0.306,2 0.889,2 0.778,1 1.806,2 1.694,2 1.611,2 0.861,1 1.834,2 0.805,0.944 0.806,1 1.472,2.056 1.5,-0.111 1.556,-0.611 1.944,-1.389 1.917,-1.889 1.694,-2 0.778,-1 1.694,-2 1.834,-2 0.861,-1 1.555,-1.944 0.417,-0.556 1.25,-1.5 -0.694,-1.5 -1.028,-1.556 -0.695,-0.944 -1.666,-2 -1.834,-2 -0.861,-1 -1.611,-2 -1.694,-2 -1.917,-1.889 -1.944,-1.389 -1.556,-0.611 z"
         id="path30" />
      <path
         style="fill:#ffffff;stroke:none"
         d="m 256.96331,350.2844 -1.25,1.5 -1.194,1.556 -1.639,1.944 -0.945,1 -1.889,2 -1.611,1.944 -1.472,2.056 0.528,1.5 0.972,1.556 1.583,1.944 1.834,2 1.694,2 0.778,0.972 1.639,1.695 1.472,0.972 1.5,0.361 1.472,-2.056 0.806,-1 0.805,-0.944 1.834,-2 0.861,-1 1.555,-1.944 0.834,-1 0.416,-0.556 1.417,-1.5 -0.75,-1.5 -0.472,-0.556 -0.667,-1 -0.75,-0.944 -0.75,-1 -1.694,-2 -1.889,-2 -0.917,-0.944 -0.805,-1 -0.528,-0.556 -0.778,-1.5 z"
         id="path32" />
      <path
         style="fill:#121212;stroke:none"
         d="m 250.96331,385.2844 0.083,1.5 0.139,0.556 0.195,1 0.583,1.944 0.333,1 0.667,2 1.667,5 0.666,2 0.334,1 0.639,1.944 0.277,1 0.167,0.556 0.25,1.5 h 4 l 0.444,-1.5 0.223,-0.556 0.333,-1 0.333,-0.944 0.334,-1 0.666,-2 2.334,-7 0.666,-2 0.334,-1 0.333,-0.944 0.333,-1 0.223,-0.556 0.444,-1.5 -1.806,0.333 -0.75,0.389 -1.027,1.389 -0.723,1.833 -0.444,1.556 -0.25,1.5 h -7 l -0.444,-1.5 -0.223,-0.556 -0.639,-1.888 -0.277,-1 -0.167,-0.556 -0.25,-1.5 z"
         id="path34" />
      <path
         style="fill:#ed1b22;stroke:none"
         d="m 266.96331,386.2844 1,1 -1,-1 m -1,3 1,1 -1,-1 m -1,3 1,1 z"
         id="path36" />
      <path
         style="fill:#ffffff;stroke:none"
         d="m 255.96331,394.2844 0.5,1.5 0.306,0.556 0.388,1 0.417,0.944 0.695,1.944 0.444,1.556 0.25,1.5 0.75,-0.778 0.083,-0.528 0.556,-1.722 0.611,-1.972 0.306,-0.944 0.277,-1 0.167,-0.556 0.25,-1.5 z"
         id="path38" />
      <path
         style="fill:#ed1b22;stroke:none"
         d="m 263.96331,395.2844 1,1 -1,-1 m -3,1 1,1 -1,-1 m -4,1 1,1 -1,-1 m 6,1 1,1 -1,-1 m -3,1 1,1 -1,-1 m -2,1 1,1 z"
         id="path40" />
      <path
         style="opacity:1;fill:#ed1b22;fill-opacity:1;stroke:#000000;stroke-width:25.171;stroke-linejoin:round;stroke-miterlimit:4;stroke-dasharray:none"
         d="M 37,66.5 V 49 H 19.5 2 V 43.023614 37.047228 L 19.25,36.773614 36.5,36.5 36.773074,18.75 37.046149,1 H 43 48.953851 L 49.226926,18.75 49.5,36.5 66.75,36.773614 84,37.047228 V 43.023614 49 H 66.5 49 V 66.5 84 h -6 -6 z"
         id="path851"
         transform="matrix(0.69875136,0,0,0.66141398,183.29267,154.27061)" />
      <path
         style="opacity:1;fill:#000000;fill-opacity:1;stroke:#000000;stroke-width:25.171;stroke-linejoin:round;stroke-miterlimit:4;stroke-dasharray:none"
         d="M 37,66.5 V 49 H 19.5 2 V 43.023614 37.047228 L 19.25,36.773614 36.5,36.5 36.773074,18.75 37.046149,1 H 43 48.953851 L 49.226926,18.75 49.5,36.5 66.75,36.773614 84,37.047228 V 43.023614 49 H 66.5 49 V 66.5 84 h -6 -6 z"
         id="path853"
         transform="matrix(0.69875136,0,0,0.66141398,260.75798,154.27061)" />
      <path
         style="opacity:1;fill:#ed1b22;fill-opacity:1;stroke:none;stroke-width:32.80629697;stroke-linejoin:round;stroke-miterlimit:4;stroke-dasharray:none"
         d="M 45.269695,102.51741 C 39.368181,99.951862 38.007982,96.157768 38.003738,82.25 L 38,70 H 24.647883 C 12.395344,70 11.015943,69.811697 7.8978832,67.713443 3.4192906,64.699639 1.6904712,59.492429 2.2764646,50.781713 3.1378698,37.977037 6.4966261,35.628635 24.628118,35.15371 L 37.84862,34.80742 38.17431,21.324307 38.5,7.8411932 42.329554,4.3342325 46.159109,0.82727171 56.977465,1.1636359 C 66.085176,1.4468127 68.150036,1.8162485 70.035926,3.5 73.971639,7.0138634 75,11.150423 75,23.467881 V 35 l 11.25,0.0056 c 13.452554,0.0067 17.77531,1.047361 21.18572,5.100405 C 109.77115,42.881482 110,43.954233 110,52.126385 110,68.032688 107.58397,70 88.04966,70 H 75 l -0.0016,11.75 c -0.0018,13.683581 -1.368189,17.68584 -6.9984,20.49845 -4.364637,2.18038 -17.963352,2.34129 -22.730305,0.26896 z"
         id="path895"
         transform="matrix(0.6880734,0,0,0.6880734,174.53292,146.39362)" />
      <path
         style="opacity:1;fill:#ed1b22;fill-opacity:1;stroke:none;stroke-width:32.80629697;stroke-linejoin:round;stroke-miterlimit:4;stroke-dasharray:none"
         d="M 44.366714,102.08194 C 38.564053,98.543647 38,96.839923 38,82.851268 V 70.147548 L 23.516401,69.823774 9.0328018,69.5 5.7664009,66.231831 C 2.6441749,63.107915 2.4847929,62.573092 2.1554715,54.114969 1.5398846,38.304554 5.4436499,35.059148 25.121669,35.021962 L 36.743337,35 37.472792,21.810483 C 38.514527,2.9745082 40.272397,1 56,1 c 13.483883,0 17.9922,3.3050833 18.005994,13.20034 0.0033,2.364813 0.291635,7.968599 0.640752,12.452858 l 0.634759,8.153198 12.609247,0.376248 c 19.523918,0.582576 22.566088,3.206057 21.953778,18.932325 -0.32932,8.458123 -0.4887,8.992946 -3.61093,12.116862 L 102.9672,69.5 88.483599,69.823774 74,70.147548 v 12.791367 c 0,14.082673 -0.820627,16.365607 -7.038636,19.581065 -4.403644,2.27721 -18.592869,2.00213 -22.59465,-0.43804 z"
         id="path897"
         transform="matrix(0.6880734,0,0,0.6880734,252.28521,146.39362)" />
    </g>
  </g>
</svg>
