<?xml version="1.0" encoding="UTF-8" standalone="no"?>
<svg
   xmlns:dc="http://purl.org/dc/elements/1.1/"
   xmlns:cc="http://creativecommons.org/ns#"
   xmlns:rdf="http://www.w3.org/1999/02/22-rdf-syntax-ns#"
   xmlns:svg="http://www.w3.org/2000/svg"
   xmlns="http://www.w3.org/2000/svg"
   xmlns:sodipodi="http://sodipodi.sourceforge.net/DTD/sodipodi-0.dtd"
   xmlns:inkscape="http://www.inkscape.org/namespaces/inkscape"
   width="59.327px"
   height="87.892px"
   viewBox="0 0 59.327145 87.892067"
   version="1.1"
   id="svg8"
   inkscape:version="1.0.2-2 (e86c870879, 2021-01-15)"
   sodipodi:docname="Ace_Of_Diamonds.svg">
  <defs
     id="defs2" />
  <sodipodi:namedview
     id="base"
     pagecolor="#ffffff"
     bordercolor="#666666"
     borderopacity="1.0"
     inkscape:pageopacity="0.0"
     inkscape:pageshadow="2"
     inkscape:zoom="1.979899"
     inkscape:cx="61.312035"
     inkscape:cy="145.77787"
     inkscape:document-units="mm"
     inkscape:current-layer="layer1"
     inkscape:document-rotation="0"
     showgrid="false"
     inkscape:window-width="1920"
     inkscape:window-height="1017"
     inkscape:window-x="-8"
     inkscape:window-y="-8"
     inkscape:window-maximized="1"
     inkscape:object-nodes="false" />
  <metadata
     id="metadata5">
    <rdf:RDF>
      <cc:Work
         rdf:about="">
        <dc:format>image/svg+xml</dc:format>
        <dc:type
           rdf:resource="http://purl.org/dc/dcmitype/StillImage" />
        <dc:title />
      </cc:Work>
    </rdf:RDF>
  </metadata>
  <g
     inkscape:label="Ebene 1"
     inkscape:groupmode="layer"
     id="layer1"
     transform="translate(-75.413811,-98.928963)">
    <g
       id="g66"
       transform="matrix(0.2746627,0,0,0.2746627,55.373513,69.736603)">
      <path
         style="fill:#ffffff;stroke:none"
         d="m 1095.4128,465.13761 v 449.99998 h 450 V 465.13761 Z"
         id="path10" />
      <path
         id="path12"
         style="fill:#ed1b22;stroke:none;stroke-width:1.0381;opacity:1"
         d="M 18.685547 0 L 16.609375 0.0859375 L 14.533203 0.43164062 L 12.457031 1.0664062 L 11.419922 1.4414062 L 9.34375 2.3652344 L 7.2675781 3.6035156 L 6.2285156 4.4121094 L 4.2382812 6.2578125 L 2.5664062 8.3046875 L 1.9316406 9.34375 L 0.89453125 11.419922 L 0.49023438 12.457031 L 0.0859375 14.533203 L 0.029296875 15.572266 L 0 17.648438 L 0 19.724609 L 0 32.181641 L 0 72.666016 L 0 250.18164 L 0 300.00977 L 0 312.4668 L 0 314.54297 L 0 315.58008 L 0.0859375 317.65625 L 0.49023438 319.73242 L 0.89453125 320.77148 L 1.3261719 321.80859 L 1.9316406 322.84766 L 2.5664062 323.88477 L 4.2382812 325.93359 L 5.21875 326.91406 L 7.2675781 328.58594 L 8.3046875 329.2207 L 10.380859 330.28711 L 12.457031 331.12305 L 14.533203 331.75781 L 15.572266 331.96094 L 16.609375 332.10352 L 18.685547 332.19141 L 20.761719 332.19141 L 22.837891 332.19141 L 25.953125 332.19141 L 50.867188 332.19141 L 158.82812 332.19141 L 192.04688 332.19141 L 202.42773 332.19141 L 204.50391 332.19141 L 205.54297 332.19141 L 207.61914 332.10352 L 209.69531 331.75781 L 211.77148 331.12305 L 212.80859 330.74805 L 214.88477 329.82617 L 216.96094 328.58594 L 218 327.7793 L 219.99023 325.93359 L 221.66211 323.88477 L 222.29688 322.84766 L 223.33398 320.77148 L 223.73828 319.73242 L 224.14258 317.65625 L 224.19922 316.61914 L 224.22852 314.54297 L 224.22852 312.4668 L 224.22852 300.00977 L 224.22852 259.52344 L 224.22852 82.009766 L 224.22852 32.181641 L 224.22852 19.724609 L 224.22852 17.648438 L 224.22852 16.609375 L 224.14258 14.533203 L 223.73828 12.457031 L 223.33398 11.419922 L 222.90234 10.380859 L 222.29688 9.34375 L 221.66211 8.3046875 L 219.99023 6.2578125 L 219.00977 5.2773438 L 216.96094 3.6035156 L 215.92383 2.9707031 L 213.84766 1.9023438 L 211.77148 1.0664062 L 209.69531 0.43164062 L 208.65625 0.23046875 L 207.61914 0.0859375 L 205.54297 0 L 203.4668 0 L 201.39062 0 L 198.27539 0 L 173.36133 0 L 164.01953 0 L 161.94336 0 L 65.400391 0 L 32.181641 0 L 21.800781 0 L 19.724609 0 L 18.685547 0 z M 19.724609 3.1152344 L 20.761719 3.1152344 L 22.837891 3.1152344 L 32.181641 3.1152344 L 65.400391 3.1152344 L 170.24805 3.1152344 L 200.35156 3.1152344 L 202.42773 3.1152344 L 203.4668 3.1152344 L 204.50391 3.1152344 L 206.58008 3.2011719 L 207.61914 3.3457031 L 208.65625 3.546875 L 209.69531 3.8359375 L 211.77148 4.5566406 L 212.80859 5.0175781 L 214.85742 6.0839844 L 215.83789 6.71875 L 217.56641 8.390625 L 218.31836 9.3710938 L 219.64258 11.419922 L 220.5957 13.496094 L 221.02734 15.572266 L 221.11523 17.648438 L 221.11523 18.685547 L 221.11523 20.761719 L 221.11523 32.181641 L 221.11523 80.970703 L 221.11523 257.44727 L 221.11523 296.89453 L 221.11523 309.35156 L 221.11523 311.42773 L 221.11523 312.4668 L 221.11523 313.50391 L 221.02734 315.58008 L 220.88477 316.61914 L 220.68164 317.65625 L 219.99023 319.73242 L 218.95117 321.80859 L 218.28906 322.81836 L 216.73242 324.66406 L 215.83789 325.47266 L 214.85742 326.10547 L 212.80859 327.17383 L 210.73242 328.00977 L 208.65625 328.64258 L 206.58008 328.99023 L 204.50391 329.07617 L 203.4668 329.07617 L 201.39062 329.07617 L 191.00977 329.07617 L 158.82812 329.07617 L 53.980469 329.07617 L 22.837891 329.07617 L 20.761719 329.07617 L 19.724609 329.07617 L 17.648438 328.99023 L 16.609375 328.8457 L 15.572266 328.64258 L 13.496094 328.00977 L 12.457031 327.63477 L 10.380859 326.71094 L 8.390625 325.47266 L 7.4980469 324.66406 L 6.6621094 323.79883 L 5.2773438 321.80859 L 4.2382812 319.73242 L 3.546875 317.65625 L 3.2011719 315.58008 L 3.1152344 313.50391 L 3.1152344 312.4668 L 3.1152344 310.39062 L 3.1152344 300.00977 L 3.1152344 252.25781 L 3.1152344 74.742188 L 3.1152344 35.294922 L 3.1152344 22.837891 L 3.1152344 20.761719 L 3.1152344 19.724609 L 3.1152344 18.685547 L 3.2011719 16.609375 L 3.3457031 15.572266 L 3.546875 14.533203 L 4.2382812 12.457031 L 5.2773438 10.380859 L 5.9394531 9.3710938 L 7.4980469 7.5253906 L 8.390625 6.71875 L 9.3710938 6.0839844 L 11.419922 5.0175781 L 13.496094 4.1816406 L 15.572266 3.546875 L 17.648438 3.2011719 L 19.724609 3.1152344 z "
         transform="matrix(0.96330275,0,0,0.96330275,72.963304,106.2844)" />
      <path
         id="path855"
         style="opacity:1;fill:#ed1b22;stroke:none;stroke-width:1.0381"
         d="M 30.105469 47.751953 L 28 49.886719 L 27.019531 50.923828 L 25.318359 52.943359 L 24.509766 53.980469 L 22.751953 56.056641 L 20.847656 58.132812 L 19.089844 60.208984 L 18.310547 61.248047 L 16.869141 63.324219 L 16.320312 64.361328 L 16.033203 66.4375 L 16.955078 68.513672 L 18.626953 70.589844 L 20.357422 72.666016 L 21.166016 73.705078 L 22.923828 75.78125 L 24.828125 77.857422 L 26.585938 79.904297 L 27.394531 80.855469 L 29.152344 82.269531 L 30.134766 82.585938 L 31.142578 82.585938 L 33.132812 81.664062 L 34.027344 80.855469 L 34.890625 79.904297 L 35.699219 78.894531 L 37.457031 76.818359 L 38.410156 75.78125 L 40.255859 73.705078 L 41.119141 72.666016 L 42.763672 70.589844 L 44.320312 68.513672 L 45.214844 66.4375 L 45.244141 65.400391 L 44.523438 63.324219 L 43.888672 62.285156 L 42.332031 60.208984 L 40.486328 58.132812 L 38.640625 56.056641 L 37.775391 55.019531 L 36.966797 53.980469 L 35.208984 51.904297 L 33.277344 49.943359 L 32.238281 49.107422 L 31.662109 48.560547 L 30.105469 47.751953 z M 30.105469 52.943359 L 32.181641 52.943359 L 32.988281 54.5 L 33.537109 55.078125 L 34.373047 56.115234 L 36.248047 58.132812 L 38.005859 60.208984 L 38.785156 61.248047 L 40.226562 63.324219 L 41.0625 65.400391 L 41.0625 66.4375 L 40.746094 67.476562 L 40.140625 68.513672 L 38.410156 70.589844 L 37.457031 71.628906 L 35.699219 73.705078 L 34.890625 74.742188 L 33.189453 76.703125 L 31.662109 78.087891 L 30.105469 78.894531 L 28.632812 77.337891 L 28.201172 76.761719 L 26.585938 74.742188 L 24.828125 72.666016 L 22.923828 70.589844 L 22.058594 69.552734 L 20.703125 67.535156 L 20.011719 65.919922 L 19.724609 64.361328 L 21.771484 62.228516 L 23.472656 60.208984 L 24.279297 59.171875 L 26.039062 57.095703 L 26.960938 56.115234 L 27.970703 55.078125 L 30.105469 52.943359 z "
         transform="matrix(0.96330275,0,0,0.96330275,72.963304,106.2844)" />
      <path
         id="path849"
         style="fill:#ed1b22;stroke:none;stroke-width:1.0381;opacity:1"
         d="m 111.07617,115.22852 -1.4707,1.55664 -0.43164,0.57812 -0.86719,1.03711 -1.61328,2.01953 -0.89453,1.03711 -1.90235,2.07617 -0.89453,1.03907 -0.86523,1.03711 -1.67188,2.07617 -0.894528,1.03906 -1.902343,2.07617 -1.759766,2.07617 -1.671875,2.07617 -0.894531,1.03711 -1.902344,2.07618 -0.894531,1.03906 -1.671875,2.07617 -0.865235,1.03711 -0.894531,1.03906 -1.902343,2.07617 -0.894532,1.03711 -1.671875,2.07618 -0.865234,1.03906 -0.894531,1.03711 -1.904297,2.07617 -0.892578,1.03906 -1.671875,2.07617 -1.759766,2.07618 -0.980469,1.0371 -1.988281,2.01758 -2.134766,2.13477 v 2.07617 l 2.105469,2.13477 0.978516,1.03906 1.703125,2.01758 1.671875,2.07617 0.892578,1.03711 1.904297,2.07617 0.894531,1.03906 0.865234,1.03711 1.671875,2.07617 0.892578,1.03907 1.904297,2.07617 0.894532,1.03711 1.671875,2.07617 1.759765,2.07617 1.902344,2.07617 1.759766,2.07618 0.80664,1.03906 1.730469,2.07617 0.921875,1.03711 1.730469,2.07617 1.671875,2.07617 1.845701,2.07617 0.95313,1.03907 1.75781,2.07617 0.80859,1.03711 1.75782,2.07617 0.92382,0.98047 1.00782,1.03906 2.13476,2.13281 h 2.07617 l 2.13477,-2.13281 1.00781,-1.03906 0.92383,-0.98047 1.75781,-2.07617 0.8086,-1.03711 1.75781,-2.07617 0.95312,-1.03907 1.84571,-2.07617 1.67187,-2.07617 1.73047,-2.07617 0.92188,-1.03711 1.73046,-2.07617 0.80664,-1.03906 1.75977,-2.07618 1.9043,-2.07617 1.75781,-2.07617 1.67188,-2.07617 0.89453,-1.03711 1.90429,-2.07617 0.89258,-1.03907 1.67188,-2.07617 0.86523,-1.03711 0.89453,-1.03906 1.9043,-2.07617 0.89258,-1.03711 1.67187,-2.07617 1.70313,-2.01758 0.97851,-1.03906 2.10547,-2.13477 -0.54687,-1.55664 -1.00977,-1.61523 -1.64258,-2.01758 -1.90429,-2.07617 -0.89454,-1.03907 -0.86523,-1.03711 -1.67188,-2.07617 -0.89257,-1.03906 -1.9043,-2.07617 -1.75977,-2.07617 -0.80664,-1.03711 -1.75781,-2.07618 -1.9043,-2.07617 -0.89453,-1.03906 -1.67187,-2.07617 -1.75977,-2.07617 -1.90234,-2.07618 -0.89453,-1.03711 -1.67188,-2.07617 -1.75976,-2.07617 -1.90235,-2.07617 -0.89453,-1.03906 -1.67187,-2.07617 -0.86524,-1.03711 -0.89453,-1.03907 -1.90234,-2.07617 -0.89453,-1.03711 -1.61328,-2.01953 -0.86719,-1.03711 -0.43164,-0.57812 -1.47071,-1.55664 z m 0,5.1914 h 2.07617 l 2.04688,2.13281 1.70117,2.01954 1.67383,2.07617 0.89258,1.03711 1.90429,2.07617 0.89453,1.03906 0.86329,1.03711 1.67382,2.07617 0.89258,1.03906 1.9043,2.07618 0.89453,1.03711 0.86328,1.03906 1.67383,2.07617 0.89258,1.03711 1.90429,2.07617 0.89454,1.03906 1.67187,2.07618 0.86524,1.03711 0.89257,1.03906 1.9043,2.07617 0.89453,1.03711 1.67188,2.07617 1.75781,2.07617 0.95312,1.03907 1.84571,2.07617 1.55664,2.01758 0.66406,1.03711 0.40234,0.57812 0.72071,1.55664 -2.13477,2.13477 -1.00781,1.03906 -0.92383,0.97851 -1.75781,2.07618 -0.8086,1.03906 -1.75781,2.07617 -1.90429,2.07617 -0.89258,1.03711 -1.67383,2.07617 -1.75781,2.07618 -1.9043,2.07617 -0.89258,1.03906 -1.67383,2.07617 -1.75781,2.07617 -1.9043,2.07618 -1.75781,2.07617 -1.67187,2.07617 -0.89453,1.03711 -1.9043,2.07617 -1.75781,2.07617 -0.8086,1.03906 -1.75781,2.07618 -1.875,2.01758 -0.83594,1.03906 -0.54687,0.57617 -0.8086,1.55664 h -2.07617 l -0.80664,-1.55664 -0.54883,-0.57617 -0.83593,-1.03906 -1.875,-2.01758 -1.75782,-2.07618 -1.67383,-2.07617 -0.89257,-1.03906 -1.9043,-2.07617 -1.757812,-2.07617 -1.673829,-2.07617 -0.892578,-1.03711 -1.904297,-2.07618 -0.894531,-1.03906 -1.671875,-2.07617 -1.757812,-2.07617 -1.904297,-2.07617 -0.894531,-1.03711 -1.671876,-2.07618 L 84,176.47656 l -1.904297,-2.07617 -0.894531,-1.03906 -1.671875,-2.07617 -1.757813,-2.07618 -1.875,-2.01757 -0.835937,-1.03711 -0.548828,-0.57813 -0.806641,-1.55664 1.296875,-1.55859 0.433594,-0.57617 1.613281,-2.01758 0.894531,-1.03907 1.904297,-2.07617 0.892578,-1.03711 1.673828,-2.07617 1.757813,-2.07617 1.904297,-2.07617 1.757812,-2.07617 0.808594,-1.03907 1.757813,-2.07617 1.904297,-2.07617 0.892578,-1.03711 0.865234,-1.03906 1.671875,-2.07617 0.894531,-1.03711 1.904297,-2.07618 1.757817,-2.07617 1.67187,-2.07617 0.89453,-1.03906 1.9043,-2.07617 1.75781,-2.07617 0.80859,-1.03711 1.70118,-2.01954 z"
         transform="matrix(0.96330275,0,0,0.96330275,71.449542,104.22018)" />
      <path
         id="path852"
         style="opacity:1;fill:#ed1b22;stroke:none;stroke-width:1.0381"
         d="M 189.9707 249.14258 L 188.44336 251.27734 L 187.60742 252.31445 L 186.77148 253.29492 L 184.86719 255.37109 L 183.97266 256.41016 L 182.30078 258.48633 L 180.54297 260.5625 L 178.66797 262.63867 L 177.85938 263.67578 L 177.25391 264.71484 L 176.9375 266.79102 L 177.85938 268.86719 L 178.66797 269.9043 L 180.54297 271.98047 L 182.30078 274.05664 L 183.97266 276.13281 L 184.86719 277.17188 L 186.77148 279.24805 L 187.60742 280.22852 L 188.44336 281.26562 L 189.9707 283.40039 L 191.5293 283.28516 L 193.14453 282.65039 L 195.16211 281.20898 L 197.15234 279.24805 L 198.91016 277.17188 L 199.71875 276.13281 L 201.47656 274.05664 L 203.38086 271.98047 L 204.27344 270.94336 L 205.88867 268.92383 L 206.32227 268.34766 L 207.61914 266.79102 L 206.89844 265.23242 L 205.83203 263.61719 L 205.10938 262.63867 L 203.38086 260.5625 L 201.47656 258.48633 L 200.58203 257.44727 L 198.91016 255.37109 L 197.15234 253.29492 L 195.16211 251.33398 L 193.14453 249.89258 L 191.5293 249.25781 L 189.9707 249.14258 z M 191.00977 253.29492 L 193.08594 253.29492 L 193.89258 254.85156 L 194.44141 255.42969 L 195.27734 256.4668 L 196.22852 257.44727 L 198.18945 259.52344 L 199.94922 261.59961 L 200.72656 262.63867 L 201.50586 263.61719 L 202.19727 264.65625 L 202.6875 265.23242 L 203.4668 266.79102 L 201.99609 268.34766 L 201.56445 268.92383 L 200.69727 269.96289 L 199.08398 271.98047 L 198.18945 273.01953 L 196.28711 275.0957 L 195.45117 276.07617 L 194.61328 277.11328 L 193.08594 279.24805 L 191.5293 278.87305 L 190 277.86328 L 188.29883 276.10352 L 187.49219 275.0957 L 185.73242 273.01953 L 183.82812 270.94336 L 182.18555 268.92383 L 181.17578 267.30859 L 180.62891 265.75195 L 182.15625 263.61719 L 183.82812 261.59961 L 185.78906 259.52344 L 186.77148 258.48633 L 188.47266 256.4668 L 189.71094 254.85156 L 191.00977 253.29492 z "
         transform="matrix(0.96330275,0,0,0.96330275,72.963304,106.2844)" />
      <text
         xml:space="preserve"
         style="font-style:normal;font-weight:normal;font-size:40px;line-height:1.25;font-family:sans-serif;fill:#000000;fill-opacity:1;stroke:none;stroke-width:1.15272;opacity:1;"
         x="19.192898"
         y="29.294424"
         id="text860"
         transform="matrix(0.82529057,0,0,0.846193,75.195701,123.80521)"><tspan
           sodipodi:role="line"
           id="tspan858"
           x="19.192898"
           y="29.294424"
           style="stroke-width:1.15272;">A</tspan></text>
      <text
         xml:space="preserve"
         style="font-style:normal;font-weight:normal;font-size:40px;line-height:1.25;font-family:sans-serif;fill:#000000;fill-opacity:1;stroke:none;stroke-width:1.15272"
         x="19.192898"
         y="29.294424"
         id="text860-6"
         transform="matrix(-0.82529057,0,0,-0.846193,284.93476,407.07138)"><tspan
           sodipodi:role="line"
           id="tspan858-9"
           x="19.192898"
           y="29.294424"
           style="stroke-width:1.15272">A</tspan></text>
    </g>
  </g>
</svg>
